<?xml version="1.0" encoding="UTF-8"?>
<svg width="76px" height="82px" viewBox="199 0 76 82" version="1.1" xmlns="http://www.w3.org/2000/svg" xmlns:xlink="http://www.w3.org/1999/xlink">
    <path stroke="none" fill="#7b68ee" fill-rule="evenodd" d="M266.349733,22.4020737 L239.614233,0.971473732 C235.896233,-1.1588596 232.8309,0.792562621 232.048066,1.3809404 L210.1764,19.1853626 C199.172733,28.9480071 198.899566,36.5434293 199.015066,38.3454515 L236.055733,12.2723848 L274.192733,38.0724737 C274.244066,36.1247404 273.688566,30.1764071 266.349733,22.4020737 M265.508233,43.0856737 L265.7704,43.0192737 L265.502733,42.8661848 C265.502733,42.9399626 265.508233,43.011896 265.508233,43.0856737 C265.508233,59.313096 252.3449,72.5156293 236.165733,72.5156293 C220.012233,72.5156293 206.869066,59.3555182 206.8269,43.1631404 L206.2109,43.4988293 C204.581066,44.7143182 200.307566,48.7093848 200.7824,56.8858071 C206.2934,71.0954071 220.050733,81.1716071 236.165733,81.1716071 C252.2844,81.1716071 266.041733,71.0917182 271.549066,56.8784293 C272.130233,46.8077626 265.508233,43.0856737 265.508233,43.0856737"></path>
</svg>